<?xml version="1.0" standalone="no"?>
<!DOCTYPE svg PUBLIC "-//W3C//DTD SVG 20010904//EN"
 "http://www.w3.org/TR/2001/REC-SVG-20010904/DTD/svg10.dtd">
<svg version="1.0" xmlns="http://www.w3.org/2000/svg"
 width="512.000000pt" height="512.000000pt" viewBox="0 0 512.000000 512.000000"
 preserveAspectRatio="xMidYMid meet">
<metadata>
Created by potrace 1.14, written by Peter Selinger 2001-2017
</metadata>
<g transform="translate(0.000000,512.000000) scale(0.100000,-0.100000)"
fill="#000000" stroke="none">
<path d="M1210 5113 c-45 -15 -100 -44 -100 -53 0 -6 -6 -10 -13 -10 -14 0
-57 -52 -57 -70 0 -5 -4 -10 -8 -10 -5 0 -15 -24 -23 -52 -12 -46 -14 -382
-13 -2373 1 -1276 4 -2331 8 -2345 3 -14 10 -26 16 -28 5 -2 10 -12 10 -23 0
-10 3 -19 8 -19 4 0 16 -13 26 -29 11 -16 45 -44 75 -63 l55 -33 1366 0 1365
0 36 22 c72 42 79 48 79 62 0 8 3 11 7 7 9 -9 61 76 65 106 2 13 6 28 9 33 7
14 5 4648 -2 4660 -4 6 -12 28 -19 49 -7 22 -18 46 -24 53 -33 40 -76 76 -116
96 l-45 22 -1345 2 c-740 1 -1352 -1 -1360 -4z"/>
</g>
</svg>
